<svg width="97" height="113" viewBox="0 0 97 113" fill="none" xmlns="http://www.w3.org/2000/svg">
<path d="M97 20.4315V22.4749C97 26.2471 94.0078 29.2324 90.2294 29.2324H6.77062C2.99108 29.2324 0 26.246 0 22.4749V20.4315C0 16.6593 2.9922 13.674 6.77062 13.674H90.2294C94.0081 13.674 97 16.6604 97 20.4315ZM50.0741 0C42.5159 0 36.3746 6.12936 36.3746 13.6729H63.7745C63.7734 6.13048 57.6321 0 50.0738 0H50.0741ZM86.7645 29.3895V99.3271C86.7645 106.871 80.6232 113 73.0649 113H23.9345C16.3762 113 10.2349 106.871 10.2349 99.3271V29.3895H86.7645ZM36.6892 44.0051C36.6892 41.8049 34.957 40.076 32.7525 40.076C30.548 40.076 28.8158 41.8049 28.8158 44.0051V94.7688C28.8158 96.969 30.548 98.6979 32.7525 98.6979C34.957 98.6979 36.6892 96.969 36.6892 94.7688V44.0051ZM68.1831 44.0051C68.1831 41.8049 66.4509 40.076 64.2464 40.076C62.0419 40.076 60.3096 41.8049 60.3096 44.0051V94.7688C60.3096 96.969 62.0419 98.6979 64.2464 98.6979C66.4509 98.6979 68.1831 96.969 68.1831 94.7688V44.0051Z" fill="#8B929B"/>
</svg>
