<svg width="16" height="16" viewBox="0 0 16 16" fill="none" xmlns="http://www.w3.org/2000/svg">
<path d="M4.2585 8.94108L10.9102 2.28906L13.7146 5.0935L7.06261 11.7452L3.90845 12.0954L4.2585 8.94108Z" fill="#8B929B"/>
<path d="M11.7589 1.43523L12.9056 0.289015C13.0919 0.103821 13.3441 0 13.6067 0C13.8694 0 14.1215 0.103821 14.3078 0.289015L15.7095 1.69122C15.8951 1.8773 15.9992 2.12946 15.9992 2.39234C15.9992 2.6552 15.8951 2.90724 15.7095 3.09345L14.5633 4.23967L11.7589 1.43523Z" fill="#8B929B"/>
<path d="M14.8563 8.57179C14.7047 8.57179 14.5593 8.63199 14.4522 8.73913C14.3451 8.84626 14.2849 8.99166 14.2849 9.14319V14.2857C14.2849 14.4373 14.2247 14.5827 14.1175 14.6898C14.0104 14.7969 13.865 14.8571 13.7135 14.8571H1.71418C1.56266 14.8571 1.41726 14.7969 1.31013 14.6898C1.20299 14.5827 1.14279 14.4373 1.14279 14.2857V2.28645C1.14279 2.13493 1.20299 1.98953 1.31013 1.88239C1.41726 1.77526 1.56266 1.71505 1.71418 1.71505H6.85674C7.06093 1.71505 7.24956 1.60613 7.3516 1.42936C7.45363 1.25258 7.45363 1.03474 7.3516 0.857963C7.24956 0.68119 7.06093 0.572266 6.85674 0.572266H1.71418C1.25948 0.572266 0.823559 0.752866 0.502011 1.07428C0.1806 1.39582 0 1.83175 0 2.28645V14.2857C0 14.7404 0.1806 15.1764 0.502011 15.4979C0.823549 15.8193 1.25948 15.9999 1.71418 15.9999H13.7135C14.1682 15.9999 14.6041 15.8193 14.9256 15.4979C15.2471 15.1764 15.4277 14.7404 15.4277 14.2857V9.14319C15.4277 8.99166 15.3675 8.84626 15.2603 8.73913C15.1532 8.63199 15.0078 8.57179 14.8563 8.57179Z" fill="#8B929B"/>
</svg>
